<svg width="19" height="21" viewBox="0 0 19 21" fill="none" xmlns="http://www.w3.org/2000/svg">
<path d="M9.07668 0C4.0717 0 0 3.90666 0 8.70684C0 11.4846 1.48374 14.391 4.41155 17.3432V17.343C5.73331 18.6727 7.18547 19.8656 8.7465 20.904C8.9471 21.032 9.2036 21.032 9.40419 20.904C10.9673 19.8649 12.4216 18.671 13.7453 17.3401C16.6699 14.3879 18.1536 11.4816 18.1536 8.70368C18.1536 3.90377 14.0818 0.000114617 9.07696 0.000114617L9.07668 0ZM9.07668 19.659C7.54706 18.6005 1.2237 13.9108 1.2237 8.70684C1.2237 4.58298 4.74796 1.2237 9.07668 1.2237C13.4054 1.2237 16.9297 4.58898 16.9297 8.70684C16.9297 13.9013 10.6063 18.5975 9.07668 19.6557V19.659Z" fill="#FF3D00"/>
<path d="M9.07669 4.0498C7.99667 4.0498 6.96105 4.47895 6.19755 5.24248C5.43383 6.00619 5.00488 7.04186 5.00488 8.12183C5.00488 9.20164 5.43381 10.2375 6.19755 11.001C6.96111 11.7645 7.99672 12.1936 9.07669 12.1936C10.1567 12.1936 11.1923 11.7645 11.9558 11.001C12.7195 10.2374 13.1485 9.20158 13.1485 8.12183C13.147 7.04224 12.7174 6.00751 11.9541 5.24439C11.1908 4.48105 10.1561 4.0515 9.07669 4.0498ZM9.07669 10.9732C8.32127 10.9732 7.59678 10.6732 7.06267 10.139C6.52854 9.60489 6.22847 8.88041 6.22847 8.12499C6.22847 7.36958 6.52851 6.64508 7.06267 6.11097C7.59679 5.57684 8.32127 5.27678 9.07669 5.27678C9.83211 5.27678 10.5566 5.57681 11.0907 6.11097C11.6248 6.6451 11.9249 7.36958 11.9249 8.12499C11.9241 8.88019 11.6238 9.60403 11.0897 10.138C10.5558 10.6721 9.83194 10.9723 9.07669 10.9732Z" fill="#FF3D00"/>
</svg>
