<svg width="34" height="22" viewBox="0 0 34 22" fill="none" xmlns="http://www.w3.org/2000/svg">
<path d="M32.9638 0.787924C32.9169 0.744034 32.8649 0.705556 32.809 0.673387C32.2799 0.242897 31.6202 0.00541019 30.9382 0H3.04202C2.36001 0.00541111 1.70025 0.242897 1.17115 0.673387C1.11527 0.705554 1.0633 0.744033 1.01643 0.787924C0.372866 1.3615 0.00330733 2.18157 0 3.04373V18.9495C0 19.7573 0.32028 20.5323 0.890517 21.1041C1.46077 21.6761 2.23475 21.9981 3.04205 21.9999H30.9313C31.7431 22.0053 32.5239 21.6864 33.0999 21.1137C33.6761 20.541 34 19.7621 34 18.9495V3.04373C33.9916 2.17857 33.6145 1.35788 32.9634 0.787924H32.9638ZM30.9448 1.34677C31.0433 1.33685 31.1424 1.33685 31.241 1.34677L18.2724 12.4711C17.8846 12.7086 17.4384 12.8343 16.9838 12.8343C16.5289 12.8343 16.0828 12.7086 15.6949 12.4711L2.74631 1.37371C2.84485 1.36379 2.944 1.36379 3.04256 1.37371L30.9448 1.34677ZM32.6543 18.9495C32.6525 19.4007 32.4726 19.833 32.1538 20.1523C31.8347 20.4712 31.4027 20.6513 30.9517 20.6531H3.04248C2.5915 20.6513 2.1595 20.4712 1.84038 20.1523C1.52161 19.833 1.34164 19.4007 1.33984 18.9495V3.04371C1.34314 2.73197 1.43147 2.42684 1.59552 2.16169L14.8602 13.5285L14.941 13.5892C15.5533 13.9764 16.2627 14.1817 16.9871 14.1817C17.7112 14.1817 18.4209 13.9764 19.0329 13.5892L19.1137 13.5285L32.3784 2.16169C32.5493 2.42473 32.6449 2.72986 32.6542 3.04371L32.6543 18.9495Z" fill="#1E1E1E"/>
</svg>
