<svg width="19" height="21" viewBox="0 0 19 21" fill="none" xmlns="http://www.w3.org/2000/svg">
<path d="M9.07668 0C4.0717 0 0 3.90666 0 8.70684C0 11.4846 1.48374 14.391 4.41155 17.3432V17.343C5.73331 18.6727 7.18547 19.8656 8.7465 20.904C8.9471 21.032 9.2036 21.032 9.40419 20.904C10.9673 19.8649 12.4216 18.671 13.7453 17.3401C16.6699 14.3879 18.1536 11.4816 18.1536 8.70368C18.1536 3.90377 14.0818 0.000114617 9.07696 0.000114617L9.07668 0ZM9.07668 19.659C7.54706 18.6005 1.2237 13.9108 1.2237 8.70684C1.2237 4.58298 4.74796 1.2237 9.07668 1.2237C13.4054 1.2237 16.9297 4.58898 16.9297 8.70684C16.9297 13.9013 10.6063 18.5975 9.07668 19.6557V19.659Z" fill="#FF3D00"/>
<path d="M9.07669 4.05078C7.99667 4.05078 6.96105 4.47992 6.19755 5.24345C5.43383 6.00717 5.00488 7.04284 5.00488 8.12281C5.00488 9.20261 5.43381 10.2384 6.19755 11.0019C6.96111 11.7655 7.99672 12.1946 9.07669 12.1946C10.1567 12.1946 11.1923 11.7655 11.9558 11.0019C12.7195 10.2384 13.1485 9.20256 13.1485 8.12281C13.147 7.04322 12.7174 6.00848 11.9541 5.24536C11.1908 4.48203 10.1561 4.05247 9.07669 4.05078ZM9.07669 10.9742C8.32127 10.9742 7.59678 10.6741 7.06267 10.14C6.52854 9.60587 6.22847 8.88139 6.22847 8.12597C6.22847 7.37055 6.52851 6.64606 7.06267 6.11195C7.59679 5.57782 8.32127 5.27775 9.07669 5.27775C9.83211 5.27775 10.5566 5.57779 11.0907 6.11195C11.6248 6.64607 11.9249 7.37055 11.9249 8.12597C11.9241 8.88117 11.6238 9.60501 11.0897 10.139C10.5558 10.6731 9.83194 10.9733 9.07669 10.9742Z" fill="#FF3D00"/>
</svg>
